<svg xmlns="http://www.w3.org/2000/svg" viewBox="0 0 24 24" width="24" height="24">
  <mask id="holes">
    <!-- Visible area -->
    <rect width="24" height="24" fill="white" />
    <!-- Cutout circles -->
    <circle cx="9.5" cy="14.5" r="1.8" fill="black" />
    <circle cx="6.5" cy="10" r="1.2" fill="black" />
    <circle cx="9" cy="6.5" r="1.2" fill="black" />
    <circle cx="13.5" cy="6.5" r="1.2" fill="black" />
    <circle cx="17" cy="9.5" r="1.2" fill="black" />
  </mask>
  <path d="M12 2C6.49 2 2 6.49 2 12s4.49 10 10 10c1.38 0 2.5-1.12 2.5-2.5 0-.61-.25-1.21-.64-1.67-.08-.09-.13-.21-.13-.33 0-.28.22-.5.5-.5H16c3.31 0 6-2.69 6-6 0-4.97-4.03-9-9-9z" fill="white" mask="url(#holes)" />
</svg>
